<svg xmlns="http://www.w3.org/2000/svg" width="142.185" height="115.549" viewBox="0 0 142.185 115.549">
  <path id="Path_1" data-name="Path 1" d="M142.185,15.927a58.24,58.24,0,0,1-16.754,4.591A29.218,29.218,0,0,0,138.257,4.381a58.436,58.436,0,0,1-18.525,7.08,29.19,29.19,0,0,0-49.711,26.6A82.812,82.812,0,0,1,9.9,7.586a29.209,29.209,0,0,0,9.023,38.947A29.047,29.047,0,0,1,5.717,42.883a29.192,29.192,0,0,0,23.4,28.97,29.238,29.238,0,0,1-13.176.5A29.192,29.192,0,0,0,43.189,92.606,58.653,58.653,0,0,1,0,104.692a82.58,82.58,0,0,0,44.717,13.1c54.16,0,84.76-45.742,82.911-86.768a59.39,59.39,0,0,0,14.556-15.1Z" transform="translate(0 -2.248)" fill="#fff"/>
</svg>